<svg id="Layer_1" data-name="Layer 1" xmlns="http://www.w3.org/2000/svg" viewBox="0 0 1124.31 1211.89"><defs><style>.cls-1{fill:#05163a;}.cls-2{fill:#22c16e;}.cls-3{fill:#1bc06a;}.cls-4{fill:#1cbf6a;}.cls-5{fill:#20bf6c;}.cls-6{fill:#168477;}</style></defs><path class="cls-1" d="M1201.82,639.27c0,80.75-.25,161.51.14,242.25.12,27.09-8.7,50.4-25.27,71.36-6.51,8.23-14.93,13.75-23.85,18.79q-164.92,93-329.85,186c-43.61,24.56-87.44,48.75-131.06,73.33-23.41,13.18-48,18.49-74.5,12.42-11.2-2.57-21.42-7.71-31.35-13.36q-89.51-50.92-179-101.9Q294.82,1064.5,182.37,1001.1c-19.05-10.76-38.65-20.64-57.26-32.11-30.35-18.71-46.62-46.87-46.74-82.21-.57-164.81-.88-329.62.17-494.41.23-35.15,17.41-64,48.87-82q117.14-67,234.68-133.28C437.46,134.33,513,91.91,588.21,48.86,622,29.53,655,28.94,688.87,48.19c62.33,35.37,124.9,70.3,187.39,105.37q127.07,71.33,254.18,142.55c9.42,5.28,19.38,9.7,28.31,15.68,28,18.72,42.59,45.85,42.93,78.93.86,82.84.28,165.7.28,248.55Z" transform="translate(-77.85 -34.05)"/><path class="cls-2" d="M725.28,626H598.61C603,615.8,608.89,607.63,614,599.1c35.45-59.52,71.52-118.66,106.56-178.41,14.25-24.3,29.36-48.15,41.74-73.52,1.76-3.61,3.52-6.28,8.55-6.25,44.72.23,89.43.13,135.82.13-42.45,67.27-86.15,132.47-129.87,197.87,5.29,4,10.38,3.8,15.41,3.79l109.89-.21h11.46c-110.21,134.94-221.75,266-334,398.35-2.28-5.15-.29-7.9,1-10.57q8.43-17.88,17.09-35.66c25.2-51.76,50.55-103.46,75.62-155.28,17.24-35.63,34.12-71.43,51.13-107.17C725.12,630.6,726.27,629.05,725.28,626Z" transform="translate(-77.85 -34.05)"/><path class="cls-3" d="M703.5,341c-9,20.14-17.28,38.67-25.45,57.26q-38,86.42-75.84,172.87c-7.22,16.47-14.47,32.93-21.33,49.55-1.92,4.65-4.59,6.43-9.45,6.37-13.79-.17-27.62-.94-41.35-.68-17.07.32-34.08-1.09-51.7-.11-.33-3.87,1.32-7,2.66-10.15,28.88-66.85,56.08-134.4,83.58-201.82,8.48-20.8,16.59-41.76,24.73-62.7,4-10.35,3.88-10.42,15.35-10.45l89.15-.14Z" transform="translate(-77.85 -34.05)"/><path class="cls-4" d="M517.68,777.06c-9,24.8-19.81,48.83-29.68,73.27-10.89,26.94-22,53.8-32.85,80.75-1.43,3.57-2.57,6.36-7.29,6.34-33.86-.14-67.73-.07-102.12-.07.7-5.94,3.93-10.4,6-15.22q43.94-103.87,88.15-207.65,9.3-21.91,18.43-43.91c1.34-3.25,2.67-5.6,6.94-5.55,31.8.34,63.59.46,95.39.66a7.6,7.6,0,0,1,1.58.69c-1.83,9.19-6.37,17.56-9.9,26.23-9.47,23.28-19.18,46.48-28.71,69.74-.42,1-.07,2.36-.08,3.56C523.78,770.77,519.66,773.36,517.68,777.06Z" transform="translate(-77.85 -34.05)"/><path class="cls-5" d="M934.73,935.61c-3.78,2.34-6.54,1.73-9.18,1.74-30.61.07-61.23,0-91.84.18-5,0-8-1-10.14-6.21q-33.08-80.19-66.86-160.07c-2.12-5-1.6-7.9,1.87-11.78,19.82-22.07,39.36-44.38,57.59-67.8,2-2.54,3.75-5.23,6.37-8.91C860.08,767.52,898.41,850.86,934.73,935.61Z" transform="translate(-77.85 -34.05)"/><path class="cls-6" d="M517.68,777.06c.69-4.37,2.2-8.32,5.82-11.16,2.64-.46,5.29-1.3,7.94-1.31q53.55-.21,107.1-.17c2.26,0,4.91-.72,6.48,1.87,1.8,3-.13,7.8-3.7,8.49a41.72,41.72,0,0,1-8.07.32q-52.2-.08-104.4-.17C525,774.93,521,774.13,517.68,777.06Z" transform="translate(-77.85 -34.05)"/></svg>