<svg id="Layer_1" data-name="Layer 1" xmlns="http://www.w3.org/2000/svg" viewBox="0 0 1243.54 493.65"><defs><style>.cls-1{fill:#0b1133;}.cls-2{fill:#0b122a;}.cls-3{fill:#0c132f;}.cls-4{fill:#0b112e;}.cls-5{fill:#0a122f;}.cls-6{fill:#0f1330;}.cls-7{fill:#0e1834;}.cls-8{fill:#11192e;}.cls-9{fill:#0c122b;}.cls-10{fill:#090e2a;}.cls-11{fill:#0a1228;}.cls-12{fill:#0a0f22;}.cls-13{fill:#10162d;}.cls-14{fill:#0a102e;}.cls-15{fill:#0c122c;}.cls-16{fill:#111c38;}.cls-17{fill:#0c122f;}.cls-18{fill:#0d142f;}.cls-19{fill:#0a1027;}.cls-20{fill:#0b132f;}.cls-21{fill:#0b1229;}.cls-22{fill:#0f1531;}.cls-23{fill:#091028;}.cls-24{fill:#001233;}.cls-25{fill:#001234;}.cls-26{fill:#031537;}.cls-27{fill:#0ea982;}.cls-28{fill:#10ab84;}.cls-29{fill:#041738;}</style></defs><path class="cls-1" d="M945.16,829.41c4.08-4.31,8-6.56,13-6.6,9.05-.06,15.59,5.57,16.21,15.11.61,9.19.16,18.44.28,27.66,0,2.68-1.64,2.37-3.34,2.36-2.12,0-3.83,0-3.76-3.12.18-8.22.18-16.45-.11-24.66s-7-12.94-14.5-10.8c-4.7,1.34-7.38,4.68-7.51,10-.2,8.22-.23,16.44-.16,24.66,0,2.75-.23,4.29-3.7,4.18-3.19-.1-4.23-.83-4.19-4.22.19-18.12.09-36.23.11-54.35,0-3.74,3-5.65,6.49-4.25,1.8.73,1.12,2.25,1.13,3.45C945.2,815.36,945.16,821.87,945.16,829.41Z" transform="translate(-18.23 -393.17)"/><path class="cls-2" d="M1109.75,825.31c-13.36-6.73-26.53-.43-30.67,14.66a22.34,22.34,0,0,0,26.14,28.17c6.66-1.41,12.34-6.81,13.19-12.8-2.45.13-4.92-.6-6.76,1.92-4.16,5.7-10,5.59-15.89,4-6.09-1.66-9.49-5.83-10.14-12.53,2.57-1,4.78-.62,6.93-.64,8-.09,16.1-.06,24.15-.15,1.33,0,3,.67,3.4-1.78C1121.42,838.6,1116.66,828.79,1109.75,825.31Zm-22.85,17.05c.13-7.77,4.63-12.91,11.53-13.49,7.49-.62,12.66,4.15,14.2,13.49Z" transform="translate(-18.23 -393.17)"/><path class="cls-3" d="M901.76,813.55H881.08c-1-1.42-.55-2.82-.74-4.11-.31-2.18.59-2.92,2.81-2.91,15.57.08,31.14,0,46.24,0a1.89,1.89,0,0,1,1.17,2c0,5,0,5-5.2,5-5,0-10,0-15.61,0v54.39c-1.23.1-1.87.19-2.51.19-5.56,0-5.51,0-5.49-5.71C901.78,846.32,901.76,830.25,901.76,813.55Z" transform="translate(-18.23 -393.17)"/><path class="cls-4" d="M1055.39,858.73q4.93-13.14,9.87-26.27c.3-.78.53-1.59.86-2.35,3.2-7.19,1-6.11,9.21-6.32.81,1.17,0,2.18-.4,3.19-5.11,12.72-10.31,25.42-15.33,38.18-.87,2.2-1.91,3.42-4.35,3-1.81-.29-3.94.86-5.07-1.91-5.57-13.62-11.71-27-16.75-40.85a6,6,0,0,1-.15-1.48c6.67-.87,6.68-.87,9.08,5.11q6,14.87,11.9,29.73Z" transform="translate(-18.23 -393.17)"/><path class="cls-5" d="M994,867.92c-7.37,0-7.34,0-7.35-6.63,0-10.72-.11-21.45-.11-32.18,0-1.63-.44-3.33.39-4.89,6.4-.43,6.4-.43,7.1,5.7,3.32-3.49,6.87-6.06,11.61-6.63,4.45-.54,4.48-.67,4.37,3.9,0,.81-.16,1.63-.24,2.4-15.27,1.06-16.31,7.53-15.82,18.5C994.2,854.58,994,861.09,994,867.92Z" transform="translate(-18.23 -393.17)"/><path class="cls-6" d="M1025.68,867.67a3.28,3.28,0,0,1-.74.23c-8.25.21-6.54.13-6.59-6.17-.09-12.56,0-25.12,0-38h7.36Z" transform="translate(-18.23 -393.17)"/><path class="cls-7" d="M1137.46,862.54c.07,3.22-2,5.76-4.9,5.88-3.18.14-5.81-2.68-5.82-6.23a4.8,4.8,0,0,1,4.88-5.17A5.45,5.45,0,0,1,1137.46,862.54Z" transform="translate(-18.23 -393.17)"/><path class="cls-8" d="M1026.92,811.77a4,4,0,0,1-4.19,4.05,5.05,5.05,0,0,1-5.39-5.24c.2-2.79,1.36-4.78,4.59-4.73S1027,807.7,1026.92,811.77Z" transform="translate(-18.23 -393.17)"/><path class="cls-9" d="M220.55,821.48c-6.48,14.4-13.55,28.4-19.72,42.81-.79,1.85-1.06,3.73-3.9,3.69-2.68,0-3.48-1.33-4.57-3.5-7.07-14-12.62-28.74-19.62-42.93.21,15.34,0,30.62-.21,45.7-.59.36-.86.67-1.12.66-7.16-.17-6,1-6-6.16-.11-16.63-.15-33.25-.22-49.87v-3.3c.49-.36.72-.65,1-.7,5.91-.91,9,1.53,11.5,7.2,6.17,13.93,12.71,27.71,18.68,42.73,2.33-5.2,4.31-9.72,6.37-14.21,5.11-11.12,10.31-22.19,15.34-33.34.9-2,2-2.84,4.17-2.61a54.82,54.82,0,0,0,5.6,0c.21.42.61.85.61,1.28-.11,18.31-.3,36.61-.32,54.91,0,2.93-.52,4.09-3.82,4s-3.84-1.15-3.81-4.12C220.63,849.69,220.55,835.58,220.55,821.48Z" transform="translate(-18.23 -393.17)"/><path class="cls-10" d="M322.85,855c0-6,.17-12.08-.07-18.11-.21-5.12-2.16-9.63-7.06-11.93-7.55-3.55-15-3-22,1.62a11.79,11.79,0,0,0-5.06,7.24c-.58,2.33.38,3.25,2.77,3.57,3.1.43,3.46-1.93,4.55-3.69,2.74-4.45,7.27-6,13.16-4.61,4.46,1.07,6.26,3.41,6.84,8.13.35,2.84-.68,3.91-3.41,4.09-4.52.31-9,.71-13.52,1.31-6.71.88-12.41,6.58-12.64,12.35-.26,6.79,3.78,11.43,11.41,13.09A16.1,16.1,0,0,0,310.38,866c1.93-1.24,3.78-2.61,5.75-4,.83,5.87.83,5.87,8.69,5.23C322.49,863.06,322.84,859,322.85,855Zm-21.34,7.17c-4.29-.36-6.95-2.58-7.35-6.13-.38-3.35,1.4-6.14,5.41-7.4,5.09-1.59,10.41-1.72,16.07-2.06C315.71,857.55,310.59,863,301.51,862.19Z" transform="translate(-18.23 -393.17)"/><path class="cls-11" d="M463.55,847.91c9.71,0,19.43,0,29.55,0a32.36,32.36,0,0,0-.55-9.47c-2.57-14.2-19.73-20-31.34-11.79-8.11,5.78-11.77,18.19-8.28,27.55a21.78,21.78,0,0,0,26.49,13.61c6-1.72,10.6-5.24,12.43-12.06-2.58-.26-4.44-1.24-6.42.9-5.49,5.93-12.28,7-19.35,3.5a10.75,10.75,0,0,1-6.05-7.57C459,848.32,459.26,847.92,463.55,847.91Zm9.19-18.76c7.24-.37,12.63,4.88,13.08,13.12H460.05C459.89,834.18,464.46,829.57,472.74,829.15Z" transform="translate(-18.23 -393.17)"/><path class="cls-12" d="M266.45,823.68c-8.92-2.44-18.21.55-23.42,7.54-5.73,7.68-6.05,19.5-.74,27.44a21.86,21.86,0,0,0,23.32,9.18c6.49-1.66,11-5.76,13.31-12.42-5.11-.65-5.21-.74-7.17,1.53-4.57,5.28-10.32,5.87-16.51,4.06s-8.32-6.67-9.54-13.08c2.3,0,4,0,5.63,0,8.55,0,17.11,0,25.66-.07,1.35,0,2.89.65,3.34-1.81C282,836.81,275.52,826.16,266.45,823.68Zm3.39,18.69c-7.71,0-15.42,0-23.46,0,.92-8.29,5.27-13,12.13-13.53,7.13-.58,12.22,2.93,14.14,9.41C273.5,841.09,272.89,842.38,269.84,842.37Z" transform="translate(-18.23 -393.17)"/><path class="cls-13" d="M366.1,835.43c-3.34.75-5.84.28-8-3-2.79-4.17-10.75-5.24-15.14-2.7-3.83,2.22-4,6.35-.42,8.94,2.52,1.81,5.53,2.36,8.4,3.28a91.81,91.81,0,0,1,9.54,3.15C368.2,848.55,370,858,364,863.83c-5.3,5.21-11.91,5.93-18.75,4.28-6.38-1.55-12.12-4.25-13.5-12,3.39-1.3,5.92-1.55,8.37,2.18,2.71,4.11,12.51,5.55,16.78,3.22s4.52-6.88.68-9.82c-2.51-1.92-5.55-2.28-8.5-2.85a28.91,28.91,0,0,1-9.94-3.37c-6.14-3.77-7.94-11.22-3.56-16.86,4.69-6,11.25-6.69,18.25-5.2C361.52,825.05,364.77,828.23,366.1,835.43Z" transform="translate(-18.23 -393.17)"/><path class="cls-14" d="M413.33,867.4c-6.22.09-6.22.09-6.44-6.06-1.66-.57-1.86,1.06-2.56,1.81-5.21,5.61-11.67,6.63-18.44,4.17s-9.8-7.83-9.91-14.9c-.13-8.22-.05-16.45-.35-24.66-.11-3.13.83-3.85,3.91-4,3.53-.12,3.72,1.45,3.66,4.17-.18,7.38-.22,14.77-.17,22.15.05,7.69,3.79,11.86,10.52,12a12.67,12.67,0,0,0,12.83-12.08c.15-7.54.19-15.1,0-22.65-.05-2.72.93-3.38,3.46-3.46s3.53.69,3.5,3.36C413.27,840.54,413.33,853.78,413.33,867.4Z" transform="translate(-18.23 -393.17)"/><path class="cls-15" d="M425.25,867.5v-43c6.4-.67,6.4-.67,7.55,6.06,3.76-5.72,8.89-7.71,15.5-6.94a15.74,15.74,0,0,1-.3,6.56c-3.9-.08-7.74-.15-10.88,2.7-2.84,2.59-4.78,5.46-4.76,9.52,0,6.53-.18,13.07-.23,19.6C432.08,868.35,432.11,868.35,425.25,867.5Z" transform="translate(-18.23 -393.17)"/><path class="cls-16" d="M500.09,862.41c.19-3.34,2-5.09,5-4.84a5.48,5.48,0,0,1,5,5.74c-.18,2.87-2.94,5.47-5.59,5.26C501.72,868.34,499.9,865.82,500.09,862.41Z" transform="translate(-18.23 -393.17)"/><path class="cls-17" d="M621.16,867.88c-1,0-1.62,0-2.25.12-3.61.53-5-.59-4.81-4.61.4-7.87.25-15.77.15-23.66-.08-6.53-3.53-10.45-9-10.57-5.88-.12-10.16,4.12-10.27,10.66-.17,9.2,0,18.4,0,27a2,2,0,0,1-2.21,1c-4.93-.06-4.93-.06-4.91-4.87,0-7.72.19-15.44.1-23.17-.09-6.61-3.38-10.31-9-10.5s-10.43,4.18-10.59,10.43c-.23,9.2-.06,18.4-.06,27.37-.8.39-1.09.65-1.39.65-7.49.13-6.25.63-6.24-5.89,0-11.08,0-22.16.2-33.24,0-2-1.4-4.91,2.82-5,3.65-.08,4.65,1.59,4,5.53,4.71-3.12,8.51-6.81,13.94-6.28,5.19.52,9.22,3,11.6,8.15,3.16-4.67,6.91-8,12.63-8.22,8.84-.31,14.89,4.83,15.2,13.83C621.44,846.89,621.16,857.13,621.16,867.88Z" transform="translate(-18.23 -393.17)"/><path class="cls-18" d="M670.48,830.25c-3.2-4-7.42-6.06-12.36-7.17-7.38-1.65-12.74,2-18,6.79-.45-6-.45-6-7.54-5.44-.62,19.92-.17,39.88-.29,59.83,0,3.46,2.79,2,4.46,2.44,2.32.56,2.85-.79,2.89-2.82.16-7.39,0-14.77-.38-22.19,13.76,8.89,22.18,9,30.2.26C676.87,853.94,677.35,838.8,670.48,830.25Zm-4.07,23.44c-2.48,5.61-6.77,8.5-12.49,8.39-6.43-.12-11.16-3.14-13.18-9a21.67,21.67,0,0,1,1.43-17.54,12.76,12.76,0,0,1,12.57-6.69c5.69.85,11.38,5.93,12.72,11.51a36.84,36.84,0,0,1,.57,4.31A23.27,23.27,0,0,1,666.41,853.69Z" transform="translate(-18.23 -393.17)"/><path class="cls-19" d="M829.57,824.4c-9.26-3.47-18.38-1.23-24.16,5.93-6.09,7.54-7.13,19.88-2.31,27.37,5.54,8.61,14.92,12.63,24.31,10,6.48-1.79,11-5.82,13.07-13.4-2.78,1.07-5.27-.8-7.29,2.13-3.84,5.58-9.65,6.49-15.72,5-6.29-1.5-9.24-6.19-10.14-12.67,2.25-1.19,4.29-.77,6.26-.79,8.23-.08,16.45,0,24.68-.12,1.34,0,3,.63,3.46-1.75C843.31,838.16,837.33,827.3,829.57,824.4Zm-21.23,18c-.92-8.05,6.32-13.75,12.62-13.52,8.16.29,13,5.12,12.75,13.52Z" transform="translate(-18.23 -393.17)"/><path class="cls-20" d="M732.74,823c-12.21-.11-21.92,9.94-22,22.76a22.37,22.37,0,0,0,22.5,22.82c11.6-.07,21.1-10.22,21.06-22.5C754.29,832.92,745.08,823.08,732.74,823Zm14.2,23.35c-.05,7.7-4.11,13.61-10.51,15.31a14.24,14.24,0,0,1-15.9-6.67c-4.19-7.26-2.56-17.46,3.67-23,3.95-3.49,10.14-4.16,14.43-1.3,5,3.33,8,8,8.3,14.13C747,845.31,746.94,845.81,746.94,846.31Z" transform="translate(-18.23 -393.17)"/><path class="cls-21" d="M755.5,824.06c7.29-.52,7.36-.55,9.5,4.83,3.45,8.71,7.07,17.36,9.92,26.3.45,1.41.61,2.95,2.14,4.34,2.07-5.25,4.09-10.33,6.05-15.44S787,833.76,789,828.6s2-5.19,8.51-4.65c-1.2,4.9-3.28,9.42-5.06,14-3.5,9-7.11,18.07-10.59,27.13-.81,2.11-1.87,3.31-4.37,3.11-2.25-.19-3.87-.33-5.05-2.93C766.37,851.88,761.69,838,755.5,824.06Z" transform="translate(-18.23 -393.17)"/><path class="cls-22" d="M540.59,808.27a26.32,26.32,0,0,1,7.2.09c.7,3.34.24,6.68.26,10,.06,15.24-.07,30.49.08,45.74,0,3-.7,4-3.87,4-3-.05-4-.74-4-3.92.16-17.93.08-35.86.1-53.79C540.38,809.72,540.51,809.08,540.59,808.27Z" transform="translate(-18.23 -393.17)"/><path class="cls-23" d="M707.7,823.31c.16,6.32.16,6.32-5.28,7.14-6.54,1-10.39,5.13-10.63,11.89-.25,7.36-.34,14.74-.27,22.1,0,2.86-.87,3.76-3.75,3.6-2.63-.14-3.88-.66-3.78-3.66.4-12.39.61-24.79,0-37.18-.1-2.05-.23-3.79,2.71-3.31,2.15.34,5.17-.61,4.38,3.44a4.64,4.64,0,0,0,.4,3.64C695.44,825.4,700.69,822.73,707.7,823.31Z" transform="translate(-18.23 -393.17)"/><path class="cls-7" d="M858.64,862.88c.08,3.22-2,5.76-4.9,5.89-3.17.13-5.81-2.69-5.82-6.24a4.8,4.8,0,0,1,4.88-5.17A5.45,5.45,0,0,1,858.64,862.88Z" transform="translate(-18.23 -393.17)"/><path class="cls-24" d="M320.78,724.22c-12-30.2-24.39-60.27-36-90.61-25.13-65.4-51.87-130.14-77.45-195.36-1-2.58-2.14-3.54-5-3.53q-33,.22-66,0c-2.8,0-4,.82-5,3.44q-32.62,83-65.45,166C50,644.08,35.14,684.34,18.84,724c-.36.86-1.05,1.74-.2,2.76,21.3,0,42.62-.08,63.93.09,3.18,0,4.67-.82,5.77-3.86,6.47-17.8,13.29-35.47,19.66-53.3,1.25-3.51,2.89-4.42,6.39-4.41q54.66.15,109.31-.08c3.16,0,4.13,1.18,5.15,3.82,6.91,18,14.11,35.87,21,53.86,1.23,3.21,2.82,4.17,6.21,4.12,16.12-.25,32.24-.19,48.36-.23H321.3C321.66,725.68,321.09,725,320.78,724.22ZM127.67,614.87l6.26-17.77C145.34,565,157.26,533,168.14,500c11,33.77,23.07,66.48,34.72,99.53l.36,1,5,14.35Z" transform="translate(-18.23 -393.17)"/><path class="cls-25" d="M539.51,578c-19.1,1.59-37.62,4.61-56.15,7.62-2.21.36-3,0-3.73-2.46-5-17.43-16.24-28.6-34.29-31.28-18.59-2.76-34.92,2.14-47.2,17.41-8.07,10-12,21.69-13.43,34.19-1.94,17.42-.61,34.51,7.34,50.59,9.65,19.54,26.27,27.09,47,26.34,19.83-.72,33.22-11.43,40.58-29.51,1.68-4.13,3.53-5,7.63-4.54,18.17,2.12,36.36,4,55,4.87-1.08,5.77-3.29,11-5.41,16.11-12.84,31.1-35.69,51-68.09,59.71-32.22,8.69-63.61,6.33-93.46-9.06-27.26-14.06-44.77-36.44-53.13-65.78-7.67-26.91-7.34-53.82,3-80,12.15-31,34.44-52.1,65.58-63.33,34.39-12.41,68.48-11.8,101.46,5.35C517.07,527.15,532.08,548.24,539.51,578Z" transform="translate(-18.23 -393.17)"/><path class="cls-26" d="M573.59,555.3c-8.26,0-16.14-.16-24,.07-3.39.1-4.21-1-4.15-4.29.28-13.09.43-26.19.25-39.27-.05-3.64,1.26-4.14,4.33-4,6.55.22,13.11,0,19.65.26,3.31.14,4.26-.87,4.22-4.2-.17-15.77-.07-31.54-.07-47.65h64.89c1,1,.46,2.44.46,3.71,0,14.6,0,29.21-.23,43.81-.07,3.65,1.07,4.4,4.51,4.35,13.76-.21,27.52-.09,41.18-.09,1.22,1.48.65,3,.64,4.49,0,12.43-.15,24.85-.2,37.27,0,6.17.44,5.15-5.49,5.17q-19.16.06-38.29.12a13.58,13.58,0,0,0-1.81.22c-.78,1.64-.45,3.17-.45,4.64Q639,605.46,639,651c0,2.85,0,5.71.2,8.56.85,12.25,8.06,19.64,20.33,21A68.64,68.64,0,0,0,684,678.88c1.1,1.13.54,2.52.55,3.77q.06,20.15,0,40.28c0,1.66.86,3.53-2.27,3.91-13.49,1.63-26.9,4.14-40.59,3.23-12.5-.83-24.67-3.17-35.82-9.1-21.12-11.21-31.1-29.49-31.92-52.83-.95-26.68-.33-53.38-.32-80.06C573.6,577.35,573.59,566.63,573.59,555.3Z" transform="translate(-18.23 -393.17)"/><path class="cls-27" d="M694.49,782.63c12.19-48.21,26-96,40.69-144.27-15.73,1.57-30.91,1.84-46.32,2.75-.37-2.13.55-3.77,1.06-5.43,12.64-41.37,26-82.51,39.35-123.65.81-2.51,1.45-4.55,4.9-4.53,20.32.13,40.64,0,61,.05a2.18,2.18,0,0,1,2.17,1.2c-12.48,28.45-22.6,58.22-34.91,88h46.52C800.28,615.58,709.39,773.4,694.49,782.63Z" transform="translate(-18.23 -393.17)"/><path class="cls-28" d="M799.39,437c0,24.93-19.34,44.13-44.47,44.12-26,0-46.15-19.45-46.1-44.4,0-24.28,20.06-43.2,45.23-43.54C781.57,392.8,800.33,415.89,799.39,437Z" transform="translate(-18.23 -393.17)"/><path class="cls-29" d="M806.56,507.83h15.07c17.46,0,34.93,0,52.39-.11,2.74,0,4,.65,5,3.43,10.16,28.05,20.56,56,30.82,84,7.78,21.22,16.09,42.26,23.3,64.79,2-5.76,3.71-10.73,5.44-15.7,14.74-42.45,30.3-84.59,46-126.68,1.2-3.22,1-7.76,4.09-9.28,2.7-1.35,6.57-.4,9.92-.41l53.9-.06a2.35,2.35,0,0,1,2.28.76c-2.9,7.16-5.9,14.54-8.88,21.92-26,64.5-53.07,128.58-80.05,192.68-1.26,3-2.69,3.85-5.83,3.82q-29.22-.24-58.44,0c-3.49,0-5.24-.9-6.65-4.27-19.76-47.13-38.87-94.54-58.31-141.81C826.73,556.75,817.38,532.35,806.56,507.83Z" transform="translate(-18.23 -393.17)"/><path class="cls-26" d="M1261.09,695.23c-.06-38.1,0-76.21-.17-114.31a76.32,76.32,0,0,0-10.65-38.36c-11-18.95-28.07-29.9-48.38-36.18-24.48-7.58-49.32-7.34-74.13-1.62a93.06,93.06,0,0,0-40.48,20.4c-16.12,13.9-24.43,31.92-28.18,53a447.71,447.71,0,0,1,54,1.79c3.62.35,4.9-.54,5.83-3.94,2.74-10,8.56-17.7,18.22-22.14,7.8-3.59,16-4.73,24.51-4.57,23,.43,34.84,13,34,35.94-.15,4-1.75,5.21-5.3,5.54-6.34.6-12.67,1.46-19,2.17-18.67,2.12-37.45,3.41-55.78,7.9-17.16,4.19-33.17,10.58-46.31,23-27.32,25.73-23.45,72.53,7.71,93.44a85.08,85.08,0,0,0,42,14.09c29.52,2.15,55.58-5.11,74.82-29.41,1.17-1.48,2.27-3,4-5.32a70.73,70.73,0,0,0,6.43,26c1.44,3.09,3.21,4.39,6.85,4.34,15.61-.23,31.23-.07,46.84-.09,1.27,0,2.68.61,3.92-.55C1261,716,1261.1,705.62,1261.09,695.23Zm-67.31-40.87c-4.19,18-19.61,30.46-39.28,32.23-8.36.75-16.37-.19-24-4-16.1-8-18-30.37-3.44-40.92,8.87-6.43,19.31-8.33,29.71-10.25,6.43-1.18,13-1.88,19.44-2.73,6.29-.82,12.63-1.25,19.3-2.68C1195.38,635.72,1195.93,645.15,1193.78,654.36Z" transform="translate(-18.23 -393.17)"/></svg>