<svg id="Layer_1" data-name="Layer 1" xmlns="http://www.w3.org/2000/svg" viewBox="0 0 1166.68 1188.36"><defs><style>.cls-1{fill:#22c16e;}.cls-2{fill:#1bc06a;}.cls-3{fill:#1cbf6a;}.cls-4{fill:#20bf6c;}.cls-5{fill:#168477;}</style></defs><path class="cls-1" d="M808.7,611.28H557.79c8.65-20.12,20.35-36.32,30.41-53.2C658.41,440.19,729.85,323,799.27,204.67,827.49,156.55,857.42,109.3,881.94,59c3.49-7.15,7-12.43,16.95-12.38,88.57.45,177.15.26,269,.26-84.07,133.25-170.64,262.41-257.24,392,10.47,8,20.56,7.53,30.52,7.51l217.68-.42c5.85,0,11.7,0,22.69,0C963.27,713.24,742.33,972.87,520.06,1235c-4.52-10.2-.59-15.64,1.92-20.94q16.69-35.41,33.84-70.63C605.74,1040.92,656,938.52,705.62,835.86c34.15-70.57,67.59-141.49,101.28-212.28C808.38,620.47,810.66,617.41,808.7,611.28Z" transform="translate(-56.9 -46.66)"/><path class="cls-2" d="M765.55,46.87c-17.74,39.9-34.23,76.59-50.41,113.42Q639.92,331.45,564.92,502.71c-14.29,32.63-28.66,65.24-42.25,98.16-3.8,9.2-9.09,12.72-18.73,12.6-27.32-.33-54.71-1.86-81.91-1.34-33.8.64-67.5-2.16-102.4-.22-.65-7.67,2.62-14,5.27-20.1C382.11,459.39,436,325.59,490.46,192c16.8-41.2,32.86-82.71,49-124.19,8-20.51,7.7-20.65,30.4-20.69q88.3-.16,176.6-.28Z" transform="translate(-56.9 -46.66)"/><path class="cls-3" d="M397.48,910.58c-17.76,49.12-39.24,96.74-58.8,145.13-21.56,53.37-43.55,106.57-65.06,160-2.84,7.07-5.09,12.59-14.44,12.55-67.08-.27-134.16-.15-202.28-.15,1.38-11.75,7.77-20.59,11.81-30.13q87-205.79,174.6-411.33,18.44-43.41,36.51-87c2.66-6.44,5.28-11.09,13.74-11,63,.67,126,.91,189,1.32.54,0,1.08.45,3.13,1.36C482,709.54,473,726.1,466,743.28c-18.77,46.13-38,92.06-56.88,138.14-.83,2-.14,4.69-.16,7.05C409.56,898.13,401.4,903.25,397.48,910.58Z" transform="translate(-56.9 -46.66)"/><path class="cls-4" d="M1223.58,1224.65c-7.47,4.63-13,3.42-18.17,3.43-60.64.14-121.29,0-181.93.36-10,.07-15.82-2-20.09-12.3Q937.87,1057.32,871,899.07c-4.19-9.91-3.17-15.65,3.72-23.32,39.24-43.72,78-87.91,114.06-134.32,3.91-5,7.44-10.36,12.62-17.63C1075.71,891.69,1151.64,1056.78,1223.58,1224.65Z" transform="translate(-56.9 -46.66)"/><path class="cls-5" d="M397.48,910.58c1.37-8.66,4.36-16.47,11.52-22.11,5.25-.9,10.49-2.57,15.74-2.59q106.06-.42,212.14-.34c4.48,0,9.74-1.42,12.84,3.72,3.56,5.9-.27,15.45-7.33,16.81-5.18,1-10.65.64-16,.64q-103.39-.15-206.8-.34C412,906.36,404,904.78,397.48,910.58Z" transform="translate(-56.9 -46.66)"/></svg>